<svg width="150" height="69" viewBox="0 0 150 69" fill="none" xmlns="http://www.w3.org/2000/svg">
<path d="M11.0781 53.7188C9.51562 53.7188 8.09375 53.3438 6.8125 52.5938C5.5625 51.8438 4.48438 50.8125 3.57812 49.5C2.70312 48.1875 2.03125 46.6562 1.5625 44.9062C1.125 43.125 0.9375 41.2344 1 39.2344C1.0625 37.3594 1.29688 35.3281 1.70312 33.1406C2.14062 30.9531 2.75 28.7656 3.53125 26.5781C4.3125 24.3594 5.25 22.2344 6.34375 20.2031C7.46875 18.1406 8.75 16.3281 10.1875 14.7656C11.625 13.2031 13.2188 11.9531 14.9688 11.0156C16.7188 10.0469 18.6406 9.5625 20.7344 9.5625C22.0156 9.5625 23.0938 9.82812 23.9688 10.3594C24.875 10.8594 25.5938 11.5312 26.125 12.375C26.6875 13.2188 27.0781 14.1719 27.2969 15.2344C27.5156 16.2969 27.6094 17.375 27.5781 18.4688C27.5156 19.5 27.3594 20.5 27.1094 21.4688C26.8906 22.4375 26.5625 23.3125 26.125 24.0938C25.7188 24.8438 25.2031 25.4531 24.5781 25.9219C23.9844 26.3594 23.2969 26.5781 22.5156 26.5781C22.1406 26.5469 21.7812 26.4219 21.4375 26.2031C21.125 26.0156 20.7969 25.7344 20.4531 25.3594C20.1406 24.9844 19.8438 24.4375 19.5625 23.7188C20.4062 23.375 21.0625 22.7812 21.5312 21.9375C22.0312 21.0625 22.4062 20.1562 22.6562 19.2188C22.9375 18.1562 23.125 16.9688 23.2188 15.6562C23.2812 14.375 23.0156 13.4375 22.4219 12.8438C21.8281 12.25 21.1562 11.9531 20.4062 11.9531C18.9375 11.9531 17.3906 12.7188 15.7656 14.25C14.1406 15.7812 12.625 17.8594 11.2188 20.4844C9.84375 23.0781 8.67188 26.1094 7.70312 29.5781C6.76562 33.0469 6.21875 36.7188 6.0625 40.5938C6 42.3438 6.10938 43.8281 6.39062 45.0469C6.70312 46.2656 7.125 47.2656 7.65625 48.0469C8.21875 48.8281 8.84375 49.3906 9.53125 49.7344C10.2188 50.0781 10.9062 50.25 11.5938 50.25C12.6875 50.25 13.7188 50.0156 14.6875 49.5469C15.6562 49.0781 16.5312 48.5 17.3125 47.8125C18.125 47.125 18.8125 46.4062 19.375 45.6562C19.9688 44.9375 20.4219 44.2969 20.7344 43.7344C20.9531 43.3281 21.1875 43.0781 21.4375 42.9844C21.6875 42.8906 21.9062 42.9219 22.0938 43.0781C22.2812 43.2031 22.4062 43.4219 22.4688 43.7344C22.5312 44.0156 22.4688 44.3594 22.2812 44.7656C21.75 45.8281 21.0938 46.8906 20.3125 47.9531C19.5625 49.0156 18.7031 49.9688 17.7344 50.8125C16.7969 51.6875 15.7656 52.3906 14.6406 52.9219C13.5156 53.4531 12.3281 53.7188 11.0781 53.7188ZM26.6406 44.25C28.0156 38.4688 29.1094 33.8281 29.9219 30.3281C30.7656 26.8281 31.4062 24.1562 31.8438 22.3125C32.3438 20.125 32.6875 18.6094 32.875 17.7656C32.9688 17.1719 33.0469 16.5938 33.1094 16.0312C33.1719 15.5313 33.2031 15.0156 33.2031 14.4844C33.2031 13.9531 33.1562 13.4688 33.0625 13.0312C33.3125 12.875 33.5781 12.75 33.8594 12.6562C34.1719 12.5625 34.4688 12.4844 34.75 12.4219C35.0938 12.3281 35.4375 12.25 35.7812 12.1875C36.125 12.125 36.4375 12.0938 36.7188 12.0938C36.9688 12.0938 37.2031 12.125 37.4219 12.1875C37.6406 12.2187 37.7812 12.3125 37.8438 12.4688C38.0312 12.625 38.1094 12.9375 38.0781 13.4062C38.0781 13.875 38.0469 14.3594 37.9844 14.8594C37.8594 15.4531 37.7188 16.0938 37.5625 16.7812C37.1875 18.125 36.6719 20.0625 36.0156 22.5938C35.4531 24.75 34.6875 27.6875 33.7188 31.4062C32.7812 35.125 31.5938 39.8125 30.1562 45.4688C30 45.625 29.8125 45.7344 29.5938 45.7969C29.375 45.8594 29.1719 45.8906 28.9844 45.8906C28.7656 45.8906 28.5312 45.875 28.2812 45.8438C28.0625 45.7812 27.8438 45.6875 27.625 45.5625C27.4375 45.4375 27.25 45.2656 27.0625 45.0469C26.875 44.8594 26.7344 44.5938 26.6406 44.25ZM51.7188 37.5469C51.4062 38.7344 50.9844 39.8438 50.4531 40.875C49.9219 41.9062 49.2812 42.7969 48.5312 43.5469C47.8125 44.2969 46.9844 44.875 46.0469 45.2812C45.1406 45.7188 44.1406 45.9375 43.0469 45.9375C41.7656 45.9375 40.75 45.6562 40 45.0938C39.2812 44.5625 38.7344 43.8906 38.3594 43.0781C38.0156 42.2656 37.8125 41.375 37.75 40.4062C37.6562 39.4375 37.6094 38.5312 37.6094 37.6875C37.6094 37.0938 37.6875 36.4375 37.8438 35.7188C37.9688 35 38.1562 34.2656 38.4062 33.5156C38.6562 32.7656 38.9688 32.0156 39.3438 31.2656C39.75 30.5156 40.2188 29.8281 40.75 29.2031C40.9375 28.6719 41.2188 28.2031 41.5938 27.7969C42 27.3906 42.4531 27.0625 42.9531 26.8125C43.4844 26.5312 44.0469 26.3281 44.6406 26.2031C45.2344 26.0469 45.8125 25.9688 46.375 25.9688C46.4688 25.9688 46.5469 25.9844 46.6094 26.0156C46.7031 26.0469 46.7969 26.0781 46.8906 26.1094C47.2969 26.1406 47.7969 26.2969 48.3906 26.5781C49.0156 26.8594 49.6094 27.2812 50.1719 27.8438C50.7656 28.4062 51.2656 29.125 51.6719 30C52.0781 30.8438 52.2812 31.875 52.2812 33.0938C52.2812 33.3438 52.2656 33.6562 52.2344 34.0312C52.2031 34.375 52.1719 34.6719 52.1406 34.9219C52.8594 34.6406 53.6094 34.2969 54.3906 33.8906C55.1719 33.4844 55.9219 33.0625 56.6406 32.625C57.3906 32.1562 58.0781 31.6875 58.7031 31.2188C59.3281 30.75 59.8281 30.3281 60.2031 29.9531C60.5156 29.6719 60.7812 29.5156 61 29.4844C61.2188 29.4531 61.375 29.5156 61.4688 29.6719C61.5625 29.8281 61.5781 30.0469 61.5156 30.3281C61.4531 30.6094 61.2812 30.9219 61 31.2656C60.8438 31.4531 60.4375 31.8281 59.7812 32.3906C59.1562 32.9531 58.4062 33.5625 57.5312 34.2188C56.6562 34.875 55.7031 35.5156 54.6719 36.1406C53.6406 36.7656 52.6562 37.2344 51.7188 37.5469ZM43.7969 30.4219C43.7031 30.7031 43.6562 31 43.6562 31.3125C43.6562 31.8125 43.6875 32.3438 43.75 32.9062C43.8125 33.4375 43.9688 33.9219 44.2188 34.3594C44.4688 34.7969 44.8594 35.1719 45.3906 35.4844C45.9531 35.7656 46.7188 35.9062 47.6875 35.9062C47.8438 35.9062 48 35.9062 48.1562 35.9062C48.3125 35.875 48.4688 35.8438 48.625 35.8125C48.7188 35.4062 48.7969 35.0469 48.8594 34.7344C48.9531 34.3906 49 34.0938 49 33.8438C49.0625 33.25 49.0625 32.6406 49 32.0156C48.9375 31.3906 48.8125 30.8281 48.625 30.3281C48.4688 29.7969 48.25 29.375 47.9688 29.0625C47.7188 28.7188 47.4062 28.5469 47.0312 28.5469C46.4375 28.5469 45.8594 28.7188 45.2969 29.0625C44.7656 29.375 44.2656 29.8281 43.7969 30.4219ZM40.7969 38.6719C40.7969 39.2344 40.8281 39.7969 40.8906 40.3594C40.9531 40.8906 41.0781 41.375 41.2656 41.8125C41.4531 42.2188 41.7031 42.5625 42.0156 42.8438C42.3281 43.0938 42.7344 43.2188 43.2344 43.2188C43.7969 43.2188 44.3125 43.0938 44.7812 42.8438C45.25 42.5625 45.6719 42.2188 46.0469 41.8125C46.4219 41.375 46.75 40.8906 47.0312 40.3594C47.3438 39.7969 47.6094 39.2188 47.8281 38.625C47.6094 38.6562 47.3906 38.6875 47.1719 38.7188C46.9844 38.7188 46.7656 38.7188 46.5156 38.7188C45.3281 38.7188 44.2969 38.375 43.4219 37.6875C42.5781 36.9688 41.9219 36.0625 41.4531 34.9688C41.2656 35.625 41.1094 36.2656 40.9844 36.8906C40.8594 37.5156 40.7969 38.1094 40.7969 38.6719ZM70.4688 36.6562C69.6562 37.8438 68.8125 39 67.9375 40.125C67.0938 41.25 66.2656 42.2656 65.4531 43.1719C64.6719 44.0469 63.9375 44.75 63.25 45.2812C62.5938 45.8438 62.0625 46.125 61.6562 46.125C60.6875 46.125 59.8906 45.6719 59.2656 44.7656C58.6719 43.8281 58.2031 42.6875 57.8594 41.3438C57.5469 39.9688 57.3438 38.5156 57.25 36.9844C57.1875 35.4219 57.2031 34.0312 57.2969 32.8125C57.4219 31.5938 57.5625 30.625 57.7188 29.9062C57.875 29.1562 58.0625 28.5781 58.2812 28.1719C58.5312 27.7656 58.8125 27.4688 59.125 27.2812C59.4688 27.0938 59.8906 26.9375 60.3906 26.8125C60.6094 26.75 60.8594 26.7031 61.1406 26.6719C61.4219 26.6406 61.6719 26.6562 61.8906 26.7188C62.1406 26.75 62.3281 26.8438 62.4531 27C62.5781 27.1562 62.5938 27.3906 62.5 27.7031C62.4375 27.9844 62.3281 28.4062 62.1719 28.9688C62.0469 29.5 61.9062 30.1094 61.75 30.7969C61.5938 31.4844 61.4375 32.2031 61.2812 32.9531C61.1562 33.7031 61.0625 34.4219 61 35.1094C60.9062 36.2969 60.9062 37.3438 61 38.25C61.0938 39.125 61.2344 39.875 61.4219 40.5C61.6094 41.0938 61.8125 41.5469 62.0312 41.8594C62.25 42.1719 62.4219 42.3281 62.5469 42.3281C62.7031 42.3281 62.9844 42.125 63.3906 41.7188C63.8281 41.2812 64.3125 40.7188 64.8438 40.0312C65.4062 39.3438 65.9844 38.5469 66.5781 37.6406C67.2031 36.7344 67.7812 35.7969 68.3125 34.8281C68.125 34.3281 68.0469 33.7344 68.0781 33.0469C68.1719 31.9844 68.4062 31.0312 68.7812 30.1875C69.1562 29.3125 69.5781 28.5781 70.0469 27.9844C70.5469 27.3906 71.0469 26.9375 71.5469 26.625C72.0781 26.2812 72.5469 26.1094 72.9531 26.1094C73.7656 26.1094 74.2656 26.3281 74.4531 26.7656C74.6719 27.1719 74.75 27.5938 74.6875 28.0312C74.625 28.6875 74.3281 29.5938 73.7969 30.75C73.2969 31.875 72.6406 33.1094 71.8281 34.4531C71.9844 34.5156 72.1562 34.5781 72.3438 34.6406C72.5312 34.7031 72.75 34.7344 73 34.7344C74.0625 34.7344 75.0156 34.6094 75.8594 34.3594C76.7344 34.1094 77.4844 33.8125 78.1094 33.4688C78.7656 33.125 79.3125 32.7656 79.75 32.3906C80.2188 31.9844 80.5938 31.6562 80.875 31.4062C81.0625 31.2188 81.25 31.125 81.4375 31.125C81.625 31.125 81.7812 31.1719 81.9062 31.2656C82.0312 31.3594 82.0938 31.5 82.0938 31.6875C82.0938 31.875 82 32.0781 81.8125 32.2969C80.6875 33.6719 79.3125 34.7812 77.6875 35.625C76.0938 36.4688 74.2188 36.8906 72.0625 36.8906C71.875 36.8906 71.6406 36.875 71.3594 36.8438C71.0781 36.8125 70.7812 36.75 70.4688 36.6562ZM98.5 35.25C97.5625 36.625 96.5 37.9688 95.3125 39.2812C94.125 40.5625 92.8594 41.7188 91.5156 42.75C90.2031 43.75 88.8438 44.5625 87.4375 45.1875C86.0625 45.8125 84.7188 46.125 83.4062 46.125C82.7188 46.125 81.9688 45.9531 81.1562 45.6094C80.375 45.2969 79.6562 44.7969 79 44.1094C78.3438 43.4219 77.8125 42.5312 77.4062 41.4375C77.0312 40.3438 76.9219 39.0156 77.0781 37.4531C77.2031 36.1719 77.5938 34.8281 78.25 33.4219C78.9375 31.9844 79.7656 30.6719 80.7344 29.4844C81.7344 28.2969 82.8438 27.3125 84.0625 26.5312C85.3125 25.75 86.5625 25.3594 87.8125 25.3594C89 25.3594 89.8594 25.6562 90.3906 26.25C90.9219 26.8438 91.1562 27.5781 91.0938 28.4531C91 29.4219 90.7188 30.3125 90.25 31.125C89.8125 31.9375 89.2812 32.6719 88.6562 33.3281C88.0312 33.9844 87.3594 34.5781 86.6406 35.1094C85.9531 35.6406 85.2969 36.125 84.6719 36.5625C83.9844 37.0312 83.3281 37.4844 82.7031 37.9219C82.0781 38.3281 81.5312 38.7031 81.0625 39.0469C81.0938 39.8281 81.2344 40.4844 81.4844 41.0156C81.7344 41.5469 82.0469 41.9844 82.4219 42.3281C82.7969 42.6406 83.2188 42.875 83.6875 43.0312C84.1875 43.1562 84.6875 43.2188 85.1875 43.2188C86.25 43.2188 87.3594 42.8906 88.5156 42.2344C89.6719 41.5469 90.7969 40.7344 91.8906 39.7969C93.0156 38.8281 94.0469 37.8281 94.9844 36.7969C95.9531 35.7656 96.75 34.875 97.375 34.125C97.5938 33.875 97.8125 33.7344 98.0312 33.7031C98.2812 33.6406 98.4688 33.6719 98.5938 33.7969C98.75 33.8906 98.8281 34.0781 98.8281 34.3594C98.8281 34.6094 98.7188 34.9062 98.5 35.25ZM86.5 28.0312C86.125 28.0312 85.6719 28.2188 85.1406 28.5938C84.6406 28.9688 84.1406 29.5156 83.6406 30.2344C83.1406 30.9219 82.6719 31.7812 82.2344 32.8125C81.7969 33.8125 81.4688 34.9688 81.25 36.2812C81.625 36 82.0312 35.7188 82.4688 35.4375C82.9062 35.125 83.3438 34.7969 83.7812 34.4531C85.125 33.4219 86.0625 32.5156 86.5938 31.7344C87.125 30.9531 87.4219 30.2812 87.4844 29.7188C87.5469 29.125 87.4844 28.7031 87.2969 28.4531C87.1094 28.1719 86.8438 28.0312 86.5 28.0312Z" fill="#EDCB43"/>
<path d="M104.212 34.611C105.783 35.1607 107.355 35.8392 108.931 36.6465C110.476 37.4619 111.92 38.3852 113.264 39.4162C114.569 40.4252 115.706 41.5279 116.674 42.7245C117.633 43.8909 118.283 45.108 118.623 46.3758C118.801 47.0398 118.829 47.8088 118.707 48.6825C118.607 49.5181 118.31 50.3417 117.816 51.1536C117.322 51.9654 116.599 52.709 115.648 53.3845C114.688 54.0298 113.434 54.4792 111.884 54.7327C110.614 54.9436 109.215 54.9141 107.687 54.6441C106.121 54.3521 104.638 53.8919 103.241 53.2635C101.835 52.6049 100.597 51.7881 99.5267 50.8131C98.4486 49.8079 97.7478 48.7016 97.4242 47.4942C97.1169 46.3472 97.1812 45.4402 97.6172 44.7734C98.0533 44.1066 98.702 43.6901 99.5633 43.524C100.523 43.3638 101.456 43.405 102.363 43.6475C103.261 43.8598 104.107 44.1829 104.903 44.6167C105.699 45.0506 106.446 45.5459 107.145 46.1026C107.836 46.6292 108.474 47.1377 109.058 47.6282C109.689 48.171 110.297 48.6876 110.881 49.1781C111.435 49.6766 111.939 50.1078 112.392 50.4716C113.139 50.2392 113.736 49.9335 114.185 49.5546C114.633 49.1756 114.975 48.7605 115.21 48.3093C115.415 47.8662 115.532 47.398 115.562 46.9048C115.553 46.3895 115.484 45.8904 115.354 45.4074C115.079 44.3811 114.475 43.3945 113.542 42.4475C112.579 41.5085 111.503 40.6322 110.314 39.8183C109.087 38.9824 107.855 38.2451 106.616 37.6064C105.369 36.9376 104.302 36.3984 103.416 35.9888C103.118 35.8422 102.926 35.6673 102.839 35.4641C102.714 35.2388 102.695 35.0496 102.784 34.8965C102.834 34.7213 102.995 34.5973 103.267 34.5245C103.508 34.4598 103.823 34.4886 104.212 34.611ZM100.345 48.0704C100.442 48.4327 100.74 48.8218 101.24 49.2379C101.732 49.6238 102.389 49.9652 103.213 50.2622C104.006 50.5672 104.958 50.7975 106.067 50.9532C107.146 51.117 108.348 51.1347 109.672 51.0063C109.304 50.7169 108.927 50.3972 108.542 50.0474C108.127 49.7057 107.697 49.3681 107.251 49.0344C105.908 48.0034 104.79 47.3324 103.897 47.0214C103.005 46.7105 102.28 46.5976 101.72 46.6828C101.13 46.7761 100.739 46.9457 100.546 47.1915C100.323 47.4454 100.256 47.7384 100.345 48.0704Z" fill="#EDCB43"/>
<path d="M104.202 29.8066C104.977 28.334 106.498 27.3166 107.528 25.8778C108.563 24.47 109.689 23.1775 110.907 22.0003C112.097 20.8578 113.356 19.8962 114.682 19.1155C115.977 18.3384 117.277 17.8754 118.581 17.7264C119.264 17.6483 120.028 17.7339 120.875 17.9832C121.686 18.2049 122.457 18.6201 123.187 19.2286C123.917 19.8372 124.546 20.6617 125.074 21.7023C125.571 22.7464 125.83 24.0535 125.852 25.6236C125.874 26.9108 125.638 28.2902 125.146 29.7619C124.626 31.2682 123.952 32.6662 123.125 33.956C122.266 35.2494 121.276 36.3534 120.153 37.2679C119 38.1861 117.803 38.7161 116.561 38.858C115.381 38.9929 114.493 38.7955 113.898 38.2659C113.303 37.7363 112.987 37.0333 112.949 36.1569C112.933 35.1837 113.111 34.2669 113.484 33.4065C113.827 32.5495 114.271 31.7596 114.818 31.0366C115.364 30.3136 115.964 29.6474 116.618 29.038C117.241 28.4321 117.838 27.8764 118.409 27.3708C119.039 26.827 119.639 26.3023 120.211 25.7966C120.785 25.322 121.286 24.8874 121.713 24.4926C121.593 23.72 121.379 23.0839 121.07 22.5845C120.761 22.085 120.401 21.6859 119.99 21.3869C119.582 21.119 119.136 20.934 118.652 20.832C118.141 20.7646 117.638 20.7593 117.141 20.8161C116.085 20.9367 115.02 21.3887 113.946 22.172C112.875 22.9863 111.85 23.9213 110.87 24.977C109.862 26.0672 87.2016 50.8044 86.7016 51.3044C86.2016 51.8044 79.7015 58.304 78.2015 58.804C78.2015 58.804 76.2012 60.3039 76.2009 59.8005C77.2009 59.8007 76.2015 59.804 76.2015 59.804C76.2015 59.804 80.2785 57.4906 104.202 29.8066ZM117.561 36.0544C117.934 36.0118 118.363 35.7741 118.848 35.3412C119.302 34.9119 119.737 34.3117 120.152 33.5409C120.571 32.801 120.939 31.894 121.256 30.8197C121.578 29.7765 121.772 28.5905 121.841 27.2616C121.5 27.5837 121.128 27.9092 120.726 28.2383C120.326 28.5985 119.929 28.9742 119.533 29.3654C118.315 30.5425 117.487 31.5494 117.048 32.3859C116.609 33.2224 116.39 33.9236 116.392 34.4896C116.397 35.0866 116.507 35.4987 116.722 35.7258C116.94 35.9839 117.22 36.0934 117.561 36.0544Z" fill="#EDCB43"/>
<path d="M98.6445 32.1844C97.2967 31.2083 95.9836 30.108 94.7054 28.8837C93.4584 27.6603 92.3386 26.3623 91.3459 24.9898C90.3836 23.6495 89.61 22.2676 89.0252 20.8441C88.4395 19.4519 88.1653 18.0999 88.2026 16.7879C88.2221 16.1007 88.4152 15.3558 88.7819 14.5534C89.1165 13.7814 89.6367 13.0771 90.3426 12.4407C91.0484 11.8042 91.9538 11.2985 93.0586 10.9234C94.1626 10.5797 95.4933 10.5081 97.0507 10.7086C98.3279 10.87 99.66 11.2986 101.047 11.9945C102.464 12.7226 103.753 13.5876 104.912 14.5897C106.071 15.6231 107.023 16.7599 107.77 18.0004C108.515 19.2721 108.87 20.5327 108.835 21.7822C108.801 22.9692 108.48 23.8198 107.871 24.334C107.263 24.8481 106.522 25.0615 105.649 24.9742C104.683 24.853 103.801 24.5466 103.002 24.0549C102.202 23.5945 101.483 23.0426 100.845 22.3992C100.207 21.7558 99.6325 21.0674 99.1219 20.3338C98.6104 19.6315 98.1449 18.9618 97.7253 18.3246C97.2763 17.6241 96.8419 16.9552 96.4224 16.318C96.034 15.6817 95.6747 15.1244 95.3444 14.6461C94.5626 14.6552 93.9026 14.7771 93.3645 15.0119C92.8264 15.2467 92.3802 15.5467 92.0259 15.9117C91.7029 16.2777 91.4566 16.6928 91.2871 17.1569C91.148 17.6531 91.0713 18.1512 91.0571 18.651C91.0269 19.713 91.3234 20.8313 91.9465 22.0057C92.6009 23.181 93.3811 24.3286 94.2872 25.4486C95.2236 26.6006 96.1939 27.6599 97.1981 28.6263C98.2014 29.6239 99.069 30.4458 99.801 31.0918C100.045 31.3176 100.179 31.5403 100.204 31.7598C100.259 32.0115 100.223 32.198 100.094 32.3194C99.9962 32.4729 99.8066 32.5457 99.5254 32.5377C99.2755 32.5306 98.9819 32.4129 98.6445 32.1844ZM106.201 20.3943C106.212 20.0195 106.037 19.5612 105.678 19.0195C105.317 18.5091 104.784 17.9937 104.08 17.4735C103.407 16.9542 102.561 16.4612 101.543 15.9946C100.556 15.5289 99.4094 15.168 98.1036 14.9121C98.3741 15.2949 98.6437 15.709 98.9124 16.1543C99.2124 16.6005 99.5279 17.0472 99.8591 17.4942C100.852 18.8667 101.731 19.8296 102.497 20.3828C103.263 20.9361 103.926 21.2519 104.486 21.3304C105.078 21.4097 105.502 21.3592 105.757 21.1789C106.043 20.9994 106.191 20.7379 106.201 20.3943Z" fill="#EDCB43"/>
</svg>
